<svg width="540" height="300" viewBox="0 0 540 300" fill="none" xmlns="http://www.w3.org/2000/svg">
<path d="M150 0L180 30L150 60L120 30L150 0Z" fill="#909090"/>
<path d="M390 0L420 30L390 60L360 30L390 0Z" fill="#909090"/>
<path d="M210 60L240 90L210 120L180 90L210 60Z" fill="#909090"/>
<path d="M450 60L480 90L450 120L420 90L450 60Z" fill="#909090"/>
<path d="M510 120L540 150L510 180L480 150L510 120Z" fill="#909090"/>
<path d="M210 180L240 210L210 240L180 210L210 180Z" fill="#909090"/>
<path d="M450 180L480 210L450 240L420 210L450 180Z" fill="#909090"/>
<path d="M150 240L180 270L150 300L120 270L150 240Z" fill="#909090"/>
<path d="M390 240L420 270L390 300L360 270L390 240Z" fill="#909090"/>
<path d="M90 180L120 210L90 240L60 210L90 180Z" fill="#909090"/>
<path d="M330 180L360 210L330 240L300 210L330 180Z" fill="#909090"/>
<path d="M30 120L60 150L30 180L0 150L30 120Z" fill="#909090"/>
<path d="M270 120L300 150L270 180L240 150L270 120Z" fill="#909090"/>
<path d="M90 60L120 90L90 120L60 90L90 60Z" fill="#909090"/>
<path d="M330 60L360 90L330 120L300 90L330 60Z" fill="#909090"/>
</svg>
